<?xml version="1.0" standalone="no"?>
<!DOCTYPE svg PUBLIC "-//W3C//DTD SVG 20010904//EN"
 "http://www.w3.org/TR/2001/REC-SVG-20010904/DTD/svg10.dtd">
<svg version="1.0" xmlns="http://www.w3.org/2000/svg"
 width="621.000000pt" height="621.000000pt" viewBox="0 0 621.000000 621.000000"
 preserveAspectRatio="xMidYMid meet">
<metadata>
Created by potrace 1.14, written by Peter Selinger 2001-2017
</metadata>
<g transform="translate(0.000000,621.000000) scale(0.100000,-0.100000)"
fill="#000000" stroke="none">
<path d="M3055 4445 c-200 -37 -435 -147 -600 -280 -145 -117 -274 -281 -395
-502 -196 -359 -264 -632 -265 -1058 0 -215 8 -271 76 -537 76 -301 166 -515
306 -725 123 -185 403 -423 613 -520 232 -107 532 -118 805 -28 180 59 335
165 515 352 253 263 382 506 479 903 33 135 34 145 52 293 11 94 7 386 -6 487
-40 309 -65 422 -127 589 -99 265 -292 554 -477 711 -168 144 -382 250 -621
307 -86 20 -267 24 -355 8z m385 -185 c41 -11 84 -24 95 -29 11 -5 52 -22 90
-38 149 -63 322 -198 418 -326 80 -108 234 -358 267 -435 100 -236 157 -528
164 -845 5 -226 -18 -366 -116 -687 -47 -157 -68 -207 -139 -333 -140 -249
-362 -468 -584 -577 -128 -63 -211 -80 -411 -87 -153 -5 -167 -4 -251 20 -156
45 -280 112 -420 229 -162 135 -265 267 -364 468 -106 215 -138 295 -149 373
-6 39 -17 93 -25 121 -40 140 -50 333 -32 601 4 66 10 149 12 185 7 107 24
188 71 330 36 108 124 321 140 339 1 2 13 -8 26 -22 17 -18 24 -37 23 -63 0
-36 -3 -39 -38 -47 -21 -5 -37 -15 -37 -23 0 -8 -7 -14 -15 -14 -17 0 -20 -25
-5 -35 5 -3 19 -1 30 5 27 14 26 -4 -1 -31 -20 -20 -20 -23 -5 -31 23 -13 20
-35 -6 -49 -42 -21 -76 -60 -71 -80 3 -10 12 -19 19 -19 12 0 12 -5 -1 -30 -8
-16 -15 -31 -15 -34 0 -10 62 -2 66 9 3 8 20 11 46 9 45 -4 78 -31 78 -63 0
-28 10 -51 24 -51 13 0 34 -63 42 -124 17 -131 62 -236 101 -236 18 0 23 -6
23 -24 0 -42 19 -79 65 -124 57 -56 50 -73 -36 -91 -92 -19 -117 -34 -125 -77
-5 -27 -1 -48 14 -80 21 -43 21 -44 2 -54 -10 -5 -26 -10 -35 -10 -64 0 -155
-101 -155 -172 0 -40 19 -61 95 -104 67 -38 76 -51 71 -99 -3 -22 -5 -44 -5
-49 -1 -4 -13 -6 -28 -2 -33 7 -19 0 70 -35 51 -19 148 -75 194 -112 16 -13
74 -72 118 -122 15 -16 5 -1 -22 35 -38 50 -74 82 -157 137 -109 73 -127 93
-45 50 24 -13 60 -29 80 -36 19 -6 75 -34 123 -61 84 -49 207 -90 376 -127 74
-16 415 -23 520 -10 73 8 292 47 301 52 3 2 16 6 30 9 112 22 229 66 272 104
9 8 17 25 17 36 0 27 -60 154 -102 215 -51 75 -60 153 -44 374 5 65 4 68 -22
84 -15 9 -28 18 -30 19 -2 1 -5 18 -7 38 -4 48 -16 61 -68 76 l-43 12 9 47 c9
43 8 52 -19 101 -41 77 -76 94 -191 97 -99 2 -208 -21 -242 -51 -28 -25 -31
-19 -15 32 8 26 16 53 18 61 3 14 65 45 74 37 7 -7 47 44 69 89 21 41 30 73
37 137 2 21 11 47 19 58 12 18 16 19 27 5 21 -26 28 -7 13 36 -8 26 -11 57 -8
83 6 35 3 45 -15 61 -40 36 -53 74 -47 134 3 31 2 65 -2 76 -12 30 23 97 42
83 6 -5 37 24 37 34 0 5 -24 9 -52 8 -57 -2 -105 4 -114 13 -9 9 29 67 48 73
18 5 36 50 24 61 -6 7 -59 14 -93 14 -27 -1 -30 24 -8 55 28 41 -9 46 -55 8
-17 -15 -33 -24 -37 -21 -3 4 -15 1 -26 -4 -18 -10 -19 -9 -13 24 9 50 -10 62
-57 37 -22 -12 -39 -16 -42 -10 -3 6 -17 7 -31 4 -24 -6 -28 0 -25 39 2 12 -5
17 -24 17 -22 0 -24 3 -16 18 14 25 8 49 -15 67 -26 19 -37 19 -64 -5 -27 -23
-40 -25 -40 -6 0 24 -26 38 -40 22 -6 -9 -9 -19 -6 -24 3 -5 -18 -29 -46 -53
-29 -24 -65 -56 -81 -71 -33 -31 -57 -36 -57 -13 0 10 -10 15 -34 15 -32 0
-35 3 -51 50 -9 28 -22 50 -28 50 -6 0 -28 -17 -50 -37 -98 -93 -95 -91 -134
-88 -39 2 -107 28 -117 43 -9 15 124 142 199 190 139 89 329 176 423 192 83
14 299 3 382 -20z m-1011 -435 c14 -53 9 -70 -25 -71 -16 -1 -39 -6 -50 -12
-11 -6 -25 -7 -32 -3 -14 9 63 121 83 121 8 0 18 -16 24 -35z m-127 -152 c0
-10 2 -22 3 -28 2 -5 3 -18 4 -27 0 -10 12 -20 26 -24 14 -3 25 -12 25 -20 0
-16 -31 -19 -45 -5 -6 6 -31 11 -57 13 l-47 3 32 53 c32 53 56 67 59 35z"/>
<path d="M2277 1779 c7 -7 15 -10 18 -7 3 3 -2 9 -12 12 -14 6 -15 5 -6 -5z"/>
</g>
</svg>
